<svg width="515" height="188" viewBox="0 0 515 188" fill="none" xmlns="http://www.w3.org/2000/svg">
<path d="M23.9 59.1C26.1 59.1 27.9 58.9333 29.3 58.6C30.7667 58.2 31.9333 57.7 32.8 57.1C33.6667 56.4333 34.2667 55.6667 34.6 54.8C34.9333 53.9333 35.1 52.9667 35.1 51.9C35.1 49.6333 34.0333 47.7667 31.9 46.3C29.7667 44.7667 26.1 43.1333 20.9 41.4C18.6333 40.6 16.3667 39.7 14.1 38.7C11.8333 37.6333 9.8 36.3333 8 34.8C6.2 33.2 4.73333 31.3 3.6 29.1C2.46667 26.8333 1.9 24.1 1.9 20.9C1.9 17.7 2.5 14.8333 3.7 12.3C4.9 9.7 6.6 7.49999 8.8 5.69999C11 3.9 13.6667 2.53333 16.8 1.6C19.9333 0.599996 23.4667 0.0999949 27.4 0.0999949C32.0667 0.0999949 36.1 0.599996 39.5 1.6C42.9 2.6 45.7 3.7 47.9 4.9L43.4 17.2C41.4667 16.2 39.3 15.3333 36.9 14.6C34.5667 13.8 31.7333 13.4 28.4 13.4C24.6667 13.4 21.9667 13.9333 20.3 15C18.7 16 17.9 17.5667 17.9 19.7C17.9 20.9667 18.2 22.0333 18.8 22.9C19.4 23.7667 20.2333 24.5667 21.3 25.3C22.4333 25.9667 23.7 26.6 25.1 27.2C26.5667 27.7333 28.1667 28.3 29.9 28.9C33.5 30.2333 36.6333 31.5667 39.3 32.9C41.9667 34.1667 44.1667 35.6667 45.9 37.4C47.7 39.1333 49.0333 41.1667 49.9 43.5C50.7667 45.8333 51.2 48.6667 51.2 52C51.2 58.4667 48.9333 63.5 44.4 67.1C39.8667 70.6333 33.0333 72.4 23.9 72.4C20.8333 72.4 18.0667 72.2 15.6 71.8C13.1333 71.4667 10.9333 71.0333 9 70.5C7.13333 69.9667 5.5 69.4 4.1 68.8C2.76667 68.2 1.63333 67.6333 0.7 67.1L5.1 54.7C7.16667 55.8333 9.7 56.8667 12.7 57.8C15.7667 58.6667 19.5 59.1 23.9 59.1ZM81.6031 1.7C82.8031 3.9 84.1698 6.63333 85.7031 9.9C87.3031 13.1 88.9365 16.6 90.6031 20.4C92.3365 24.1333 94.0365 27.9667 95.7031 31.9C97.3698 35.8333 98.9365 39.5333 100.403 43C101.87 39.5333 103.436 35.8333 105.103 31.9C106.77 27.9667 108.436 24.1333 110.103 20.4C111.836 16.6 113.47 13.1 115.003 9.9C116.603 6.63333 118.003 3.9 119.203 1.7H133.403C134.07 6.3 134.67 11.4667 135.203 17.2C135.803 22.8667 136.303 28.8 136.703 35C137.17 41.1333 137.57 47.3 137.903 53.5C138.303 59.7 138.636 65.5333 138.903 71H123.703C123.503 64.2667 123.236 56.9333 122.903 49C122.57 41.0667 122.07 33.0667 121.403 25C120.203 27.8 118.87 30.9 117.403 34.3C115.936 37.7 114.47 41.1 113.003 44.5C111.603 47.9 110.236 51.1667 108.903 54.3C107.57 57.3667 106.436 60 105.503 62.2H94.6031C93.6698 60 92.5365 57.3667 91.2031 54.3C89.8698 51.1667 88.4698 47.9 87.0031 44.5C85.6031 41.1 84.1698 37.7 82.7031 34.3C81.2365 30.9 79.9031 27.8 78.7031 25C78.0365 33.0667 77.5365 41.0667 77.2031 49C76.8698 56.9333 76.6031 64.2667 76.4031 71H61.2031C61.4698 65.5333 61.7698 59.7 62.1031 53.5C62.5031 47.3 62.9031 41.1333 63.3031 35C63.7698 28.8 64.2698 22.8667 64.8031 17.2C65.4031 11.4667 66.0365 6.3 66.7031 1.7H81.6031ZM199.349 71C198.616 68.6 197.783 66.1333 196.849 63.6C195.983 61.0667 195.116 58.5333 194.249 56H167.249C166.383 58.5333 165.483 61.0667 164.549 63.6C163.683 66.1333 162.883 68.6 162.149 71H145.949C148.549 63.5333 151.016 56.6333 153.349 50.3C155.683 43.9667 157.949 38 160.149 32.4C162.416 26.8 164.616 21.5 166.749 16.5C168.949 11.4333 171.216 6.5 173.549 1.7H188.449C190.716 6.5 192.949 11.4333 195.149 16.5C197.349 21.5 199.549 26.8 201.749 32.4C204.016 38 206.316 43.9667 208.649 50.3C210.983 56.6333 213.449 63.5333 216.049 71H199.349ZM180.649 17.4C180.316 18.4 179.816 19.7667 179.149 21.5C178.483 23.2333 177.716 25.2333 176.849 27.5C175.983 29.7667 175.016 32.2667 173.949 35C172.949 37.7333 171.916 40.6 170.849 43.6H190.549C189.483 40.6 188.449 37.7333 187.449 35C186.449 32.2667 185.483 29.7667 184.549 27.5C183.683 25.2333 182.916 23.2333 182.249 21.5C181.583 19.7667 181.049 18.4 180.649 17.4ZM245.32 0.899997C255.72 0.899997 263.686 2.76666 269.22 6.5C274.753 10.1667 277.52 15.9 277.52 23.7C277.52 28.5667 276.386 32.5333 274.12 35.6C271.92 38.6 268.72 40.9667 264.52 42.7C265.92 44.4333 267.386 46.4333 268.92 48.7C270.453 50.9 271.953 53.2333 273.42 55.7C274.953 58.1 276.42 60.6333 277.82 63.3C279.22 65.9 280.52 68.4667 281.72 71H264.22C262.953 68.7333 261.653 66.4333 260.32 64.1C259.053 61.7667 257.72 59.5 256.32 57.3C254.986 55.1 253.653 53.0333 252.32 51.1C250.986 49.1 249.653 47.3 248.32 45.7H240.62V71H225.02V2.7C228.42 2.03333 231.92 1.56666 235.52 1.3C239.186 1.03333 242.453 0.899997 245.32 0.899997ZM246.22 14.2C245.086 14.2 244.053 14.2333 243.12 14.3C242.253 14.3667 241.42 14.4333 240.62 14.5V33.3H245.02C250.886 33.3 255.086 32.5667 257.62 31.1C260.153 29.6333 261.42 27.1333 261.42 23.6C261.42 20.2 260.12 17.8 257.52 16.4C254.986 14.9333 251.22 14.2 246.22 14.2ZM342.142 1.7V15H321.242V71H305.642V15H284.742V1.7H342.142ZM36.6 187.4C25.3333 187.4 16.7333 184.267 10.8 178C4.93333 171.733 2 162.833 2 151.3C2 145.567 2.9 140.467 4.7 136C6.5 131.467 8.96667 127.667 12.1 124.6C15.2333 121.467 18.9667 119.1 23.3 117.5C27.6333 115.9 32.3333 115.1 37.4 115.1C40.3333 115.1 43 115.333 45.4 115.8C47.8 116.2 49.9 116.7 51.7 117.3C53.5 117.833 55 118.4 56.2 119C57.4 119.6 58.2667 120.067 58.8 120.4L54.3 133C52.1667 131.867 49.6667 130.9 46.8 130.1C44 129.3 40.8 128.9 37.2 128.9C34.8 128.9 32.4333 129.3 30.1 130.1C27.8333 130.9 25.8 132.2 24 134C22.2667 135.733 20.8667 138 19.8 140.8C18.7333 143.6 18.2 147 18.2 151C18.2 154.2 18.5333 157.2 19.2 160C19.9333 162.733 21.0667 165.1 22.6 167.1C24.2 169.1 26.2667 170.7 28.8 171.9C31.3333 173.033 34.4 173.6 38 173.6C40.2667 173.6 42.3 173.467 44.1 173.2C45.9 172.933 47.5 172.633 48.9 172.3C50.3 171.9 51.5333 171.467 52.6 171C53.6667 170.533 54.6333 170.1 55.5 169.7L59.8 182.2C57.6 183.533 54.5 184.733 50.5 185.8C46.5 186.867 41.8667 187.4 36.6 187.4ZM80.4047 151.3C80.4047 154.7 80.8047 157.767 81.6047 160.5C82.4714 163.233 83.6714 165.6 85.2047 167.6C86.8047 169.533 88.738 171.033 91.0047 172.1C93.2714 173.167 95.8714 173.7 98.8047 173.7C101.671 173.7 104.238 173.167 106.505 172.1C108.838 171.033 110.771 169.533 112.305 167.6C113.905 165.6 115.105 163.233 115.905 160.5C116.771 157.767 117.205 154.7 117.205 151.3C117.205 147.9 116.771 144.833 115.905 142.1C115.105 139.3 113.905 136.933 112.305 135C110.771 133 108.838 131.467 106.505 130.4C104.238 129.333 101.671 128.8 98.8047 128.8C95.8714 128.8 93.2714 129.367 91.0047 130.5C88.738 131.567 86.8047 133.1 85.2047 135.1C83.6714 137.033 82.4714 139.4 81.6047 142.2C80.8047 144.933 80.4047 147.967 80.4047 151.3ZM133.305 151.3C133.305 157.233 132.405 162.467 130.605 167C128.871 171.467 126.471 175.233 123.405 178.3C120.338 181.3 116.671 183.567 112.405 185.1C108.205 186.633 103.671 187.4 98.8047 187.4C94.0714 187.4 89.6047 186.633 85.4047 185.1C81.2047 183.567 77.538 181.3 74.4047 178.3C71.2714 175.233 68.8047 171.467 67.0047 167C65.2047 162.467 64.3047 157.233 64.3047 151.3C64.3047 145.367 65.238 140.167 67.1047 135.7C68.9714 131.167 71.4714 127.367 74.6047 124.3C77.8047 121.233 81.4714 118.933 85.6047 117.4C89.8047 115.867 94.2047 115.1 98.8047 115.1C103.538 115.1 108.005 115.867 112.205 117.4C116.405 118.933 120.071 121.233 123.205 124.3C126.338 127.367 128.805 131.167 130.605 135.7C132.405 140.167 133.305 145.367 133.305 151.3ZM192.609 172.6V186H146.309V116.7H161.909V172.6H192.609ZM248.956 172.6V186H202.656V116.7H218.256V172.6H248.956ZM259.004 186V116.7H305.804V129.8H274.604V143.4H302.304V156.2H274.604V172.9H308.104V186H259.004ZM371.048 116.7V130H350.148V186H334.548V130H313.648V116.7H371.048ZM391.83 151.3C391.83 154.7 392.23 157.767 393.03 160.5C393.897 163.233 395.097 165.6 396.63 167.6C398.23 169.533 400.164 171.033 402.43 172.1C404.697 173.167 407.297 173.7 410.23 173.7C413.097 173.7 415.664 173.167 417.93 172.1C420.264 171.033 422.197 169.533 423.73 167.6C425.33 165.6 426.53 163.233 427.33 160.5C428.197 157.767 428.63 154.7 428.63 151.3C428.63 147.9 428.197 144.833 427.33 142.1C426.53 139.3 425.33 136.933 423.73 135C422.197 133 420.264 131.467 417.93 130.4C415.664 129.333 413.097 128.8 410.23 128.8C407.297 128.8 404.697 129.367 402.43 130.5C400.164 131.567 398.23 133.1 396.63 135.1C395.097 137.033 393.897 139.4 393.03 142.2C392.23 144.933 391.83 147.967 391.83 151.3ZM444.73 151.3C444.73 157.233 443.83 162.467 442.03 167C440.297 171.467 437.897 175.233 434.83 178.3C431.764 181.3 428.097 183.567 423.83 185.1C419.63 186.633 415.097 187.4 410.23 187.4C405.497 187.4 401.03 186.633 396.83 185.1C392.63 183.567 388.964 181.3 385.83 178.3C382.697 175.233 380.23 171.467 378.43 167C376.63 162.467 375.73 157.233 375.73 151.3C375.73 145.367 376.664 140.167 378.53 135.7C380.397 131.167 382.897 127.367 386.03 124.3C389.23 121.233 392.897 118.933 397.03 117.4C401.23 115.867 405.63 115.1 410.23 115.1C414.964 115.1 419.43 115.867 423.63 117.4C427.83 118.933 431.497 121.233 434.63 124.3C437.764 127.367 440.23 131.167 442.03 135.7C443.83 140.167 444.73 145.367 444.73 151.3ZM478.034 115.9C488.434 115.9 496.401 117.767 501.934 121.5C507.468 125.167 510.234 130.9 510.234 138.7C510.234 143.567 509.101 147.533 506.834 150.6C504.634 153.6 501.434 155.967 497.234 157.7C498.634 159.433 500.101 161.433 501.634 163.7C503.168 165.9 504.668 168.233 506.134 170.7C507.668 173.1 509.134 175.633 510.534 178.3C511.934 180.9 513.234 183.467 514.434 186H496.934C495.668 183.733 494.368 181.433 493.034 179.1C491.768 176.767 490.434 174.5 489.034 172.3C487.701 170.1 486.368 168.033 485.034 166.1C483.701 164.1 482.368 162.3 481.034 160.7H473.334V186H457.734V117.7C461.134 117.033 464.634 116.567 468.234 116.3C471.901 116.033 475.168 115.9 478.034 115.9ZM478.934 129.2C477.801 129.2 476.768 129.233 475.834 129.3C474.968 129.367 474.134 129.433 473.334 129.5V148.3H477.734C483.601 148.3 487.801 147.567 490.334 146.1C492.868 144.633 494.134 142.133 494.134 138.6C494.134 135.2 492.834 132.8 490.234 131.4C487.701 129.933 483.934 129.2 478.934 129.2Z" fill="white"/>
</svg>
